<svg xmlns="http://www.w3.org/2000/svg" xmlns:xlink="http://www.w3.org/1999/xlink" width="2000" zoomAndPan="magnify" viewBox="0 0 1500 383.03998" height="500" preserveAspectRatio="xMidYMid meet" version="1.0"><defs><g/><clipPath id="2eb34a23c7"><path d="M 82 18 L 1398 18 L 1398 374.0625 L 82 374.0625 Z M 82 18 " clip-rule="nonzero"/></clipPath><clipPath id="53914ee8c7"><path d="M 86 53 L 1315.578125 53 L 1315.578125 356.0625 L 86 356.0625 Z M 86 53 " clip-rule="nonzero"/></clipPath><clipPath id="d1bf5e0a51"><rect x="0" width="1230" y="0" height="304"/></clipPath><clipPath id="a988f2a45f"><path d="M 0.0742188 0.671875 L 274 0.671875 L 274 197 L 0.0742188 197 Z M 0.0742188 0.671875 " clip-rule="nonzero"/></clipPath><clipPath id="8465d5d17b"><path d="M 0.296875 105.136719 L 232.992188 0.863281 L 273.71875 91.75 L 41.027344 196.023438 Z M 0.296875 105.136719 " clip-rule="nonzero"/></clipPath><clipPath id="740a27f4ff"><path d="M 14 29 L 247 29 L 247 184 L 14 184 Z M 14 29 " clip-rule="nonzero"/></clipPath><clipPath id="1d1c34f886"><path d="M 0.296875 105.136719 L 232.992188 0.863281 L 273.71875 91.75 L 41.027344 196.023438 Z M 0.296875 105.136719 " clip-rule="nonzero"/></clipPath><clipPath id="f856d56efd"><path d="M 233.128906 0.800781 L 0.4375 105.074219 L 41.164062 195.960938 L 273.859375 91.6875 Z M 233.128906 0.800781 " clip-rule="nonzero"/></clipPath><clipPath id="1a5abe8441"><path d="M 233.128906 0.800781 L 0.4375 105.074219 L 41.164062 195.960938 L 273.859375 91.6875 Z M 233.128906 0.800781 " clip-rule="nonzero"/></clipPath><clipPath id="f042600ea3"><path d="M 233.128906 0.800781 L 0.4375 105.074219 L 41.164062 195.960938 L 273.859375 91.6875 Z M 233.128906 0.800781 " clip-rule="nonzero"/></clipPath><clipPath id="80483f4c14"><rect x="0" width="274" y="0" height="197"/></clipPath><clipPath id="90265bf007"><rect x="0" width="1316" y="0" height="357"/></clipPath></defs><g clip-path="url(#2eb34a23c7)"><g transform="matrix(1, 0, 0, 1, 82, 18)"><g clip-path="url(#90265bf007)"><g clip-path="url(#53914ee8c7)"><g transform="matrix(1, 0, 0, 1, 86, 53)"><g clip-path="url(#d1bf5e0a51)"><g fill="#000000" fill-opacity="1"><g transform="translate(0.624985, 250.751132)"><g><path d="M 145.1875 -60.875 L 189.1875 -60.875 C 185.144531 -48.570312 178.820312 -37.632812 170.21875 -28.0625 C 161.613281 -18.488281 151.425781 -10.976562 139.65625 -5.53125 C 127.882812 -0.0820312 115.148438 2.640625 101.453125 2.640625 C 88.796875 2.640625 76.890625 0.269531 65.734375 -4.46875 C 54.585938 -9.21875 44.753906 -15.851562 36.234375 -24.375 C 27.710938 -32.894531 21.078125 -42.734375 16.328125 -53.890625 C 11.585938 -65.046875 9.21875 -76.945312 9.21875 -89.59375 C 9.21875 -102.238281 11.585938 -114.140625 16.328125 -125.296875 C 21.078125 -136.453125 27.710938 -146.289062 36.234375 -154.8125 C 44.753906 -163.332031 54.585938 -169.960938 65.734375 -174.703125 C 76.890625 -179.441406 88.796875 -181.8125 101.453125 -181.8125 C 115.148438 -181.8125 127.835938 -179.085938 139.515625 -173.640625 C 151.203125 -168.203125 161.347656 -160.78125 169.953125 -151.375 C 178.566406 -141.976562 184.890625 -131.132812 188.921875 -118.84375 L 144.921875 -118.84375 C 141.234375 -126.914062 135.347656 -133.28125 127.265625 -137.9375 C 119.191406 -142.59375 110.585938 -144.921875 101.453125 -144.921875 C 91.785156 -144.921875 83 -142.414062 75.09375 -137.40625 C 67.1875 -132.40625 60.90625 -125.734375 56.25 -117.390625 C 51.601562 -109.046875 49.28125 -99.78125 49.28125 -89.59375 C 49.28125 -79.40625 51.601562 -70.140625 56.25 -61.796875 C 60.90625 -53.453125 67.1875 -46.773438 75.09375 -41.765625 C 83 -36.753906 91.785156 -34.25 101.453125 -34.25 C 110.753906 -34.25 119.445312 -36.707031 127.53125 -41.625 C 135.613281 -46.550781 141.5 -52.96875 145.1875 -60.875 Z M 145.1875 -60.875 "/></g></g></g><g fill="#000000" fill-opacity="1"><g transform="translate(196.401807, 250.751132)"><g><path d="M 154.140625 -89.859375 C 154.140625 -99.160156 151.679688 -107.804688 146.765625 -115.796875 C 141.847656 -123.796875 135.390625 -130.253906 127.390625 -135.171875 C 119.398438 -140.085938 110.753906 -142.546875 101.453125 -142.546875 C 92.316406 -142.546875 83.707031 -140.085938 75.625 -135.171875 C 67.539062 -130.253906 61.039062 -123.796875 56.125 -115.796875 C 51.207031 -107.804688 48.75 -99.160156 48.75 -89.859375 C 48.75 -80.722656 51.207031 -72.113281 56.125 -64.03125 C 61.039062 -55.945312 67.539062 -49.398438 75.625 -44.390625 C 83.707031 -39.390625 92.316406 -36.890625 101.453125 -36.890625 C 110.753906 -36.890625 119.398438 -39.390625 127.390625 -44.390625 C 135.390625 -49.398438 141.847656 -55.945312 146.765625 -64.03125 C 151.679688 -72.113281 154.140625 -80.722656 154.140625 -89.859375 Z M 193.671875 -89.59375 C 193.671875 -77.289062 191.210938 -65.5625 186.296875 -54.40625 C 181.378906 -43.257812 174.660156 -33.425781 166.140625 -24.90625 C 157.617188 -16.382812 147.820312 -9.660156 136.75 -4.734375 C 125.6875 0.179688 113.921875 2.640625 101.453125 2.640625 C 89.148438 2.640625 77.421875 0.179688 66.265625 -4.734375 C 55.109375 -9.660156 45.269531 -16.382812 36.75 -24.90625 C 28.238281 -33.425781 21.519531 -43.257812 16.59375 -54.40625 C 11.675781 -65.5625 9.21875 -77.289062 9.21875 -89.59375 C 9.21875 -102.0625 11.675781 -113.828125 16.59375 -124.890625 C 21.519531 -135.960938 28.238281 -145.757812 36.75 -154.28125 C 45.269531 -162.800781 55.109375 -169.519531 66.265625 -174.4375 C 77.421875 -179.351562 89.148438 -181.8125 101.453125 -181.8125 C 113.921875 -181.8125 125.6875 -179.351562 136.75 -174.4375 C 147.820312 -169.519531 157.617188 -162.800781 166.140625 -154.28125 C 174.660156 -145.757812 181.378906 -135.960938 186.296875 -124.890625 C 191.210938 -113.828125 193.671875 -102.0625 193.671875 -89.59375 Z M 193.671875 -89.59375 "/></g></g></g><g fill="#000000" fill-opacity="1"><g transform="translate(399.293013, 250.751132)"><g><path d="M 156.515625 0 L 117 0 L 55.328125 -111.71875 L 55.328125 0 L 15.8125 0 L 15.8125 -179.1875 L 55.328125 -179.1875 L 117 -67.453125 L 117 -179.1875 L 156.515625 -179.1875 Z M 156.515625 0 "/></g></g></g><g fill="#000000" fill-opacity="1"><g transform="translate(571.618725, 250.751132)"><g><path d="M 119.625 -35.84375 L 119.625 0 L 15.8125 0 L 15.8125 -179.1875 L 119.625 -179.1875 L 119.625 -143.34375 L 55.328125 -143.34375 L 55.328125 -107.765625 L 117 -107.765625 L 117 -71.9375 L 55.328125 -71.9375 L 55.328125 -35.84375 Z M 119.625 -35.84375 "/></g></g></g><g fill="#000000" fill-opacity="1"><g transform="translate(707.055202, 250.751132)"><g><path d="M 145.1875 -60.875 L 189.1875 -60.875 C 185.144531 -48.570312 178.820312 -37.632812 170.21875 -28.0625 C 161.613281 -18.488281 151.425781 -10.976562 139.65625 -5.53125 C 127.882812 -0.0820312 115.148438 2.640625 101.453125 2.640625 C 88.796875 2.640625 76.890625 0.269531 65.734375 -4.46875 C 54.585938 -9.21875 44.753906 -15.851562 36.234375 -24.375 C 27.710938 -32.894531 21.078125 -42.734375 16.328125 -53.890625 C 11.585938 -65.046875 9.21875 -76.945312 9.21875 -89.59375 C 9.21875 -102.238281 11.585938 -114.140625 16.328125 -125.296875 C 21.078125 -136.453125 27.710938 -146.289062 36.234375 -154.8125 C 44.753906 -163.332031 54.585938 -169.960938 65.734375 -174.703125 C 76.890625 -179.441406 88.796875 -181.8125 101.453125 -181.8125 C 115.148438 -181.8125 127.835938 -179.085938 139.515625 -173.640625 C 151.203125 -168.203125 161.347656 -160.78125 169.953125 -151.375 C 178.566406 -141.976562 184.890625 -131.132812 188.921875 -118.84375 L 144.921875 -118.84375 C 141.234375 -126.914062 135.347656 -133.28125 127.265625 -137.9375 C 119.191406 -142.59375 110.585938 -144.921875 101.453125 -144.921875 C 91.785156 -144.921875 83 -142.414062 75.09375 -137.40625 C 67.1875 -132.40625 60.90625 -125.734375 56.25 -117.390625 C 51.601562 -109.046875 49.28125 -99.78125 49.28125 -89.59375 C 49.28125 -79.40625 51.601562 -70.140625 56.25 -61.796875 C 60.90625 -53.453125 67.1875 -46.773438 75.09375 -41.765625 C 83 -36.753906 91.785156 -34.25 101.453125 -34.25 C 110.753906 -34.25 119.445312 -36.707031 127.53125 -41.625 C 135.613281 -46.550781 141.5 -52.96875 145.1875 -60.875 Z M 145.1875 -60.875 "/></g></g></g><g fill="#000000" fill-opacity="1"><g transform="translate(902.831963, 250.751132)"><g><path d="M 91.96875 -143.34375 L 91.96875 0 L 52.4375 0 L 52.4375 -143.34375 L 1.3125 -143.34375 L 1.3125 -179.1875 L 143.078125 -179.1875 L 143.078125 -143.34375 Z M 91.96875 -143.34375 "/></g></g></g><g fill="#000000" fill-opacity="1"><g transform="translate(1047.2273, 250.751132)"><g><path d="M 113.3125 -68.515625 L 90.640625 -132.28125 L 67.984375 -68.515625 Z M 180.234375 0 L 137.8125 0 L 124.90625 -36.09375 L 56.65625 -36.09375 L 43.734375 0 L 1.3125 0 L 74.046875 -179.1875 L 107.515625 -179.1875 Z M 180.234375 0 "/></g></g></g></g></g></g><g clip-path="url(#a988f2a45f)"><g clip-path="url(#8465d5d17b)"><g><g clip-path="url(#80483f4c14)"><g clip-path="url(#740a27f4ff)"><g clip-path="url(#1d1c34f886)"><g clip-path="url(#f856d56efd)"><g clip-path="url(#1a5abe8441)"><g clip-path="url(#f042600ea3)"><path fill="#000000" d="M 15.070312 132.355469 L 111.710938 56.355469 C 114.957031 53.804688 118.761719 52.101562 122.75 51.410156 L 243.867188 29.828125 C 245.972656 29.429688 247.199219 32.167969 245.503906 33.476562 L 197.992188 70.839844 C 163.679688 75.441406 130.898438 89.582031 102.375 108.941406 C 132.164062 91.390625 166.425781 79.324219 200.957031 77.457031 L 207.808594 92.742188 C 208.386719 94.035156 207.542969 95.417969 206.15625 95.582031 C 186.417969 98.035156 165.078125 103.855469 143.917969 113.335938 C 122.757812 122.820312 104.214844 134.871094 89.171875 148.007812 C 88.125 148.933594 86.605469 148.609375 86.027344 147.316406 L 76.210938 125.414062 L 50.222656 130.027344 L 68.554688 170.941406 L 68.9375 170.773438 C 69.773438 170.398438 70.765625 170.773438 71.140625 171.613281 L 74.515625 179.140625 C 74.890625 179.976562 74.511719 180.96875 73.675781 181.34375 L 69.105469 183.390625 C 68.269531 183.765625 67.277344 183.386719 66.902344 182.550781 L 63.53125 175.023438 C 63.15625 174.1875 63.53125 173.195312 64.371094 172.820312 L 64.75 172.648438 L 46.007812 130.820312 L 16.707031 136.007812 C 14.523438 136.4375 13.296875 133.699219 15.070312 132.355469 Z M 15.070312 132.355469 " fill-opacity="1" fill-rule="nonzero"/></g></g></g></g></g></g></g></g></g></g></g></g></svg>